<svg width="50" height="50" viewBox="0 0 512 512" fill="none" xmlns="http://www.w3.org/2000/svg">
<path d="M232.12 265.256L265.248 232.124C265.898 231.475 266.414 230.703 266.767 229.854C267.119 229.005 267.3 228.095 267.3 227.176C267.3 226.257 267.119 225.347 266.767 224.498C266.414 223.649 265.898 222.877 265.248 222.228L247.6 204.58C251.228 197.932 254.136 190.916 256.276 183.652H281.22C283.077 183.652 284.857 182.915 286.17 181.602C287.483 180.289 288.22 178.509 288.22 176.652V129.804C288.22 127.947 287.483 126.167 286.17 124.854C284.857 123.542 283.077 122.804 281.22 122.804H256.332C254.19 115.529 251.272 108.506 247.628 101.856L265.248 84.232C265.899 83.5823 266.415 82.8106 266.767 81.9613C267.119 81.1119 267.3 80.2015 267.3 79.282C267.3 78.3625 267.119 77.4521 266.767 76.6027C266.415 75.7534 265.899 74.9817 265.248 74.332L232.12 41.2C231.471 40.5496 230.699 40.0335 229.85 39.6815C229.001 39.3294 228.091 39.1482 227.172 39.1482C226.253 39.1482 225.343 39.3294 224.494 39.6815C223.645 40.0335 222.873 40.5496 222.224 41.2L204.6 58.828C197.95 55.1838 190.927 52.2657 183.652 50.124V25.228C183.653 24.3086 183.472 23.3981 183.12 22.5486C182.769 21.6991 182.253 20.9272 181.603 20.2771C180.953 19.627 180.181 19.1114 179.331 18.7598C178.482 18.4082 177.571 18.2275 176.652 18.228H129.8C128.881 18.2275 127.97 18.4082 127.121 18.7598C126.271 19.1114 125.499 19.627 124.849 20.2771C124.199 20.9272 123.683 21.6991 123.332 22.5486C122.98 23.3981 122.8 24.3086 122.8 25.228V50.168C115.537 52.3105 108.523 55.2202 101.876 58.848L84.232 41.2C83.5823 40.5494 82.8107 40.0333 81.9613 39.6812C81.1119 39.3291 80.2015 39.1478 79.282 39.1478C78.3626 39.1478 77.4521 39.3291 76.6028 39.6812C75.7534 40.0333 74.9818 40.5494 74.332 41.2L41.2 74.332C40.5495 74.9817 40.0334 75.7534 39.6812 76.6027C39.3291 77.4521 39.1479 78.3625 39.1479 79.282C39.1479 80.2015 39.3291 81.1119 39.6812 81.9613C40.0334 82.8106 40.5495 83.5823 41.2 84.232L58.84 101.876C55.2125 108.524 52.3028 115.54 50.16 122.804H25.228C24.3086 122.803 23.3981 122.984 22.5486 123.336C21.6991 123.687 20.9272 124.203 20.2771 124.853C19.627 125.503 19.1114 126.275 18.7598 127.125C18.4082 127.974 18.2275 128.885 18.228 129.804V176.652C18.2275 177.571 18.4082 178.482 18.7598 179.331C19.1114 180.181 19.627 180.953 20.2771 181.603C20.9272 182.253 21.6991 182.769 22.5486 183.12C23.3981 183.472 24.3086 183.653 25.228 183.652H50.12C52.2628 190.927 55.1822 197.95 58.828 204.6L41.2 222.228C40.5496 222.877 40.0336 223.649 39.6815 224.498C39.3294 225.347 39.1482 226.257 39.1482 227.176C39.1482 228.095 39.3294 229.005 39.6815 229.854C40.0336 230.703 40.5496 231.475 41.2 232.124L74.324 265.256C75.6378 266.567 77.418 267.303 79.274 267.303C81.13 267.303 82.9102 266.567 84.224 265.256L101.848 247.628C108.5 251.272 115.524 254.192 122.8 256.336V281.232C122.8 283.089 123.538 284.869 124.85 286.182C126.163 287.495 127.944 288.232 129.8 288.232H176.652C178.509 288.232 180.289 287.495 181.602 286.182C182.915 284.869 183.652 283.089 183.652 281.232V256.288C190.915 254.146 197.929 251.236 204.576 247.608L222.224 265.256C223.537 266.568 225.316 267.305 227.172 267.305C229.028 267.305 230.807 266.568 232.12 265.256ZM210.676 233.908C209.564 232.794 208.109 232.088 206.547 231.904C204.984 231.719 203.404 232.068 202.064 232.892C193.701 238.034 184.574 241.815 175.024 244.092C173.496 244.459 172.135 245.329 171.161 246.562C170.187 247.795 169.655 249.32 169.652 250.892V274.212H136.8V250.956C136.798 249.383 136.266 247.856 135.29 246.623C134.314 245.389 132.95 244.52 131.42 244.156C121.872 241.872 112.75 238.077 104.4 232.912C103.058 232.085 101.477 231.734 99.9109 231.917C98.3452 232.1 96.8869 232.806 95.772 233.92L79.28 250.4L56.056 227.168L72.536 210.684C73.6495 209.569 74.3547 208.112 74.5376 206.547C74.7205 204.982 74.3705 203.401 73.544 202.06C68.38 193.705 64.5866 184.578 62.308 175.024C61.944 173.494 61.075 172.13 59.8413 171.154C58.6076 170.178 57.0811 169.646 55.508 169.644H32.228V136.8H55.544C57.1159 136.797 58.6412 136.266 59.8746 135.292C61.108 134.318 61.9778 132.957 62.344 131.428C64.6191 121.88 68.3997 112.755 73.544 104.396C74.367 103.054 74.7144 101.474 74.5301 99.9099C74.3458 98.3462 73.6406 96.8901 72.528 95.776L56.056 79.28L79.28 56.056L95.776 72.552C96.8891 73.6648 98.3446 74.3703 99.9078 74.5546C101.471 74.739 103.051 74.3914 104.392 73.568C112.754 68.4261 121.88 64.6456 131.428 62.368C132.956 62.0011 134.317 61.1311 135.291 59.8979C136.265 58.6646 136.797 57.1397 136.8 55.568V32.228H169.652V55.504C169.654 57.0771 170.186 58.6036 171.162 59.8373C172.138 61.071 173.502 61.9399 175.032 62.304C184.585 64.5818 193.713 68.3738 202.068 73.536C203.408 74.3659 204.99 74.718 206.556 74.535C208.121 74.352 209.579 73.6447 210.692 72.528L227.172 56.048L250.4 79.28L233.92 95.764C232.807 96.8796 232.102 98.3377 231.919 99.9031C231.736 101.468 232.086 103.05 232.912 104.392C238.076 112.745 241.868 121.871 244.144 131.424C244.508 132.954 245.377 134.318 246.611 135.294C247.844 136.27 249.371 136.802 250.944 136.804H274.22V169.652H250.9C249.328 169.655 247.802 170.187 246.569 171.163C245.336 172.138 244.466 173.499 244.1 175.028C241.823 184.577 238.042 193.702 232.9 202.064C232.076 203.404 231.727 204.984 231.912 206.547C232.096 208.109 232.802 209.564 233.916 210.676L250.4 227.176L227.172 250.4L210.676 233.908Z" fill="black"/>
<path d="M153.228 92.632C141.243 92.632 129.528 96.1859 119.563 102.844C109.598 109.503 101.831 118.966 97.2447 130.039C92.6583 141.111 91.4583 153.295 93.7964 165.05C96.1346 176.804 101.906 187.601 110.38 196.076C118.855 204.55 129.652 210.322 141.406 212.66C153.161 214.998 165.345 213.798 176.417 209.211C187.49 204.625 196.953 196.858 203.612 186.893C210.27 176.928 213.824 165.213 213.824 153.228C213.806 137.162 207.416 121.76 196.056 110.4C184.696 99.04 169.294 92.65 153.228 92.632ZM153.228 199.832C144.013 199.832 135.004 197.099 127.342 191.98C119.679 186.86 113.707 179.583 110.18 171.069C106.653 162.556 105.73 153.187 107.527 144.149C109.324 135.11 113.761 126.807 120.277 120.29C126.793 113.774 135.095 109.335 144.133 107.536C153.171 105.738 162.54 106.659 171.054 110.185C179.569 113.71 186.846 119.681 191.967 127.343C197.088 135.004 199.823 144.013 199.824 153.228C199.809 165.581 194.895 177.425 186.16 186.16C177.425 194.895 165.582 199.809 153.228 199.824V199.832ZM486.772 328.348H461.876C459.735 321.073 456.817 314.05 453.172 307.4L470.796 289.772C471.447 289.123 471.963 288.351 472.315 287.502C472.667 286.653 472.848 285.743 472.848 284.824C472.848 283.905 472.667 282.995 472.315 282.146C471.963 281.297 471.447 280.525 470.796 279.876L437.668 246.752C437.018 246.101 436.247 245.585 435.397 245.233C434.548 244.881 433.638 244.7 432.718 244.7C431.799 244.7 430.888 244.881 430.039 245.233C429.189 245.585 428.418 246.101 427.768 246.752L410.144 264.372C403.494 260.728 396.473 257.809 389.2 255.664V230.768C389.2 228.912 388.463 227.131 387.15 225.818C385.837 224.506 384.057 223.768 382.2 223.768H335.348C333.492 223.768 331.711 224.506 330.398 225.818C329.086 227.131 328.348 228.912 328.348 230.768V255.712C321.084 257.854 314.068 260.764 307.42 264.392L289.776 246.752C289.127 246.102 288.355 245.586 287.506 245.233C286.657 244.881 285.747 244.7 284.828 244.7C283.909 244.7 282.999 244.881 282.15 245.233C281.301 245.586 280.53 246.102 279.88 246.752L246.748 279.876C245.436 281.189 244.7 282.968 244.7 284.824C244.7 286.68 245.436 288.459 246.748 289.772L264.4 307.42C260.771 314.067 257.862 321.083 255.724 328.348H230.772C228.916 328.348 227.135 329.086 225.822 330.398C224.51 331.711 223.772 333.491 223.772 335.348V382.196C223.772 384.053 224.51 385.833 225.822 387.146C227.135 388.459 228.916 389.196 230.772 389.196H255.668C257.81 396.471 260.728 403.494 264.372 410.144L246.748 427.768C245.436 429.081 244.699 430.862 244.699 432.718C244.699 434.574 245.436 436.355 246.748 437.668L279.88 470.8C280.53 471.45 281.301 471.966 282.15 472.319C282.999 472.671 283.909 472.852 284.828 472.852C285.747 472.852 286.657 472.671 287.506 472.319C288.355 471.966 289.127 471.45 289.776 470.8L307.4 453.2C314.05 456.845 321.073 459.763 328.348 461.904V486.8C328.348 487.719 328.528 488.63 328.88 489.479C329.231 490.329 329.747 491.101 330.397 491.751C331.047 492.401 331.819 492.917 332.669 493.268C333.518 493.62 334.429 493.801 335.348 493.8H382.196C383.116 493.801 384.026 493.62 384.876 493.268C385.725 492.917 386.497 492.401 387.147 491.751C387.797 491.101 388.313 490.329 388.664 489.479C389.016 488.63 389.197 487.719 389.196 486.8V461.86C396.461 459.717 403.476 456.806 410.124 453.176L427.768 470.82C428.418 471.471 429.189 471.987 430.039 472.339C430.888 472.691 431.799 472.872 432.718 472.872C433.638 472.872 434.548 472.691 435.397 472.339C436.247 471.987 437.018 471.471 437.668 470.82L470.796 437.696C471.447 437.046 471.963 436.275 472.315 435.425C472.667 434.576 472.848 433.665 472.848 432.746C472.848 431.827 472.667 430.916 472.315 430.067C471.963 429.217 471.447 428.446 470.796 427.796L453.152 410.148C456.78 403.501 459.69 396.487 461.832 389.224H486.772C487.692 389.225 488.602 389.044 489.452 388.692C490.301 388.341 491.073 387.825 491.723 387.175C492.373 386.525 492.889 385.753 493.24 384.903C493.592 384.054 493.773 383.143 493.772 382.224V335.348C493.773 334.429 493.592 333.518 493.24 332.669C492.889 331.819 492.373 331.047 491.723 330.397C491.073 329.747 490.301 329.231 489.452 328.88C488.602 328.528 487.692 328.347 486.772 328.348ZM479.772 375.2H456.456C454.884 375.203 453.359 375.734 452.126 376.708C450.892 377.682 450.022 379.043 449.656 380.572C447.379 390.12 443.598 399.246 438.456 407.608C437.633 408.95 437.286 410.529 437.471 412.092C437.655 413.655 438.36 415.111 439.472 416.224L455.972 432.724L432.744 455.948L416.248 439.452C415.134 438.341 413.679 437.637 412.116 437.453C410.553 437.268 408.974 437.615 407.632 438.436C399.269 443.577 390.142 447.358 380.592 449.636C379.064 450.002 377.703 450.872 376.728 452.105C375.754 453.339 375.223 454.864 375.22 456.436V479.752H342.348V456.476C342.346 454.903 341.814 453.376 340.838 452.143C339.862 450.909 338.499 450.04 336.968 449.676C327.415 447.398 318.287 443.606 309.932 438.444C308.592 437.615 307.01 437.263 305.445 437.446C303.879 437.629 302.421 438.336 301.308 439.452L284.828 455.932L261.6 432.72L278.08 416.236C279.195 415.122 279.901 413.663 280.084 412.097C280.267 410.531 279.916 408.95 279.088 407.608C273.927 399.254 270.136 390.128 267.86 380.576C267.496 379.046 266.627 377.682 265.393 376.706C264.16 375.73 262.633 375.198 261.06 375.196H237.772V342.348H261.088C262.66 342.345 264.186 341.813 265.419 340.838C266.652 339.862 267.522 338.501 267.888 336.972C270.165 327.423 273.946 318.298 279.088 309.936C279.913 308.596 280.261 307.016 280.076 305.453C279.892 303.891 279.186 302.436 278.072 301.324L261.6 284.824L284.828 261.6L301.324 278.096C302.435 279.211 303.89 279.918 305.453 280.103C307.017 280.287 308.596 279.938 309.936 279.112C318.299 273.97 327.426 270.189 336.976 267.912C338.504 267.545 339.865 266.675 340.839 265.442C341.813 264.209 342.345 262.684 342.348 261.112V237.792H375.2V261.068C375.202 262.641 375.734 264.168 376.71 265.401C377.687 266.635 379.05 267.504 380.58 267.868C390.132 270.148 399.258 273.942 407.612 279.104C408.953 279.934 410.535 280.285 412.102 280.102C413.668 279.919 415.126 279.212 416.24 278.096L432.72 261.6L455.948 284.828L439.464 301.312C438.35 302.426 437.644 303.884 437.461 305.449C437.279 307.014 437.629 308.595 438.456 309.936C443.618 318.289 447.409 327.416 449.684 336.968C450.047 338.499 450.916 339.863 452.15 340.84C453.384 341.817 454.91 342.35 456.484 342.352H479.76L479.772 375.2Z" fill="black"/>
<path d="M358.772 298.176C346.787 298.176 335.072 301.73 325.107 308.388C315.142 315.047 307.375 324.51 302.789 335.583C298.202 346.655 297.002 358.839 299.34 370.594C301.679 382.348 307.45 393.145 315.924 401.62C324.399 410.094 335.196 415.866 346.95 418.204C358.705 420.542 370.889 419.342 381.961 414.755C393.034 410.169 402.497 402.402 409.156 392.437C415.814 382.472 419.368 370.757 419.368 358.772C419.35 342.706 412.96 327.304 401.6 315.944C390.24 304.584 374.838 298.194 358.772 298.176ZM358.772 405.376C349.556 405.376 340.547 402.643 332.885 397.523C325.222 392.403 319.25 385.126 315.723 376.612C312.196 368.097 311.273 358.728 313.071 349.69C314.869 340.651 319.307 332.348 325.824 325.832C332.34 319.315 340.643 314.877 349.682 313.079C358.72 311.281 368.089 312.204 376.604 315.731C385.118 319.258 392.395 325.23 397.515 332.893C402.635 340.555 405.368 349.564 405.368 358.78C405.352 371.132 400.438 382.974 391.702 391.708C382.967 400.442 371.125 405.354 358.772 405.368V405.376ZM306.844 83.428C347.515 95.401 382.639 121.376 406 156.756C400.397 161.828 396.855 168.782 396.047 176.296C395.238 183.809 397.221 191.358 401.616 197.505C406.012 203.653 412.514 207.969 419.886 209.634C427.257 211.298 434.983 210.195 441.594 206.533C448.205 202.871 453.239 196.907 455.737 189.775C458.236 182.643 458.026 174.841 455.146 167.854C452.266 160.867 446.919 155.182 440.12 151.882C433.322 148.582 425.547 147.896 418.276 149.956C393.109 111.361 355 83.0101 310.8 70C309.913 69.7204 308.978 69.6206 308.052 69.7063C307.125 69.792 306.225 70.0615 305.404 70.4991C304.583 70.9368 303.858 71.5337 303.27 72.255C302.682 72.9763 302.244 73.8076 301.982 74.7002C301.719 75.5927 301.637 76.5287 301.74 77.4534C301.843 78.3781 302.13 79.2729 302.583 80.0855C303.036 80.8982 303.647 81.6123 304.379 82.1862C305.111 82.7601 305.947 83.1823 306.844 83.428ZM443.2 179.496C443.2 182.797 442.221 186.023 440.388 188.767C438.554 191.512 435.948 193.651 432.898 194.914C429.849 196.177 426.494 196.507 423.256 195.863C420.019 195.219 417.046 193.63 414.712 191.296C412.378 188.962 410.789 185.989 410.145 182.752C409.501 179.515 409.831 176.159 411.094 173.11C412.357 170.06 414.496 167.454 417.241 165.62C419.985 163.787 423.212 162.808 426.512 162.808C430.937 162.812 435.179 164.572 438.308 167.7C441.436 170.829 443.196 175.071 443.2 179.496ZM205.156 428.572C164.493 416.595 129.376 390.62 106.02 355.244C111.623 350.172 115.165 343.218 115.974 335.704C116.782 328.191 114.8 320.642 110.404 314.495C106.008 308.347 99.506 304.031 92.1345 302.366C84.763 300.702 77.0367 301.805 70.426 305.467C63.8154 309.129 58.7817 315.093 56.2828 322.225C53.784 329.357 53.9944 337.159 56.8741 344.146C59.7537 351.133 65.1016 356.818 71.9001 360.118C78.6985 363.418 86.473 364.104 93.7441 362.044C118.905 400.636 157.007 428.987 201.2 442C201.843 442.19 202.51 442.286 203.18 442.284C204.861 442.28 206.485 441.672 207.755 440.569C209.024 439.467 209.854 437.945 210.094 436.28C210.333 434.616 209.965 432.922 209.058 431.506C208.151 430.091 206.764 429.049 205.152 428.572H205.156ZM68.8001 332.504C68.8017 329.204 69.7818 325.978 71.6164 323.235C73.4511 320.492 76.0579 318.354 79.1074 317.092C82.1569 315.83 85.512 315.501 88.7487 316.146C91.9853 316.79 94.9581 318.38 97.2911 320.715C99.6242 323.049 101.213 326.022 101.856 329.259C102.499 332.496 102.168 335.851 100.905 338.9C99.6417 341.949 97.5028 344.555 94.7586 346.388C92.0145 348.221 88.7883 349.2 85.4881 349.2C81.0621 349.196 76.8187 347.435 73.6898 344.305C70.5608 341.174 68.8022 336.93 68.8001 332.504Z" fill="black"/>
</svg>
