<svg width="50" height="50" viewBox="0 0 512 512" fill="none" xmlns="http://www.w3.org/2000/svg">
<g clip-path="url(#clip0_2311_8)">
<path d="M297.448 279.808C291.915 274.276 282.943 274.276 277.41 279.809L245.537 311.682L200.318 266.463L232.191 234.589C237.725 229.055 237.725 220.083 232.191 214.55C226.658 209.016 217.685 209.016 212.152 214.55L180.279 246.424L154.794 220.939C149.261 215.405 140.288 215.405 134.755 220.939L78.395 277.299C39.12 316.573 36.665 378.939 71.031 421.1C70.571 421.458 70.122 421.838 69.699 422.261L4.15099 487.811C-1.38301 493.344 -1.38301 502.317 4.15099 507.85C5.46522 509.168 7.02692 510.213 8.74632 510.925C10.4657 511.637 12.3089 512.002 14.17 512C17.796 512 21.423 510.616 24.189 507.85L89.738 442.301C90.1522 441.882 90.54 441.437 90.899 440.969C110.574 457.006 134.649 465.024 158.724 465.024C186.239 465.024 213.753 454.551 234.7 433.604L291.06 377.244C296.594 371.711 296.594 362.738 291.06 357.205L265.575 331.72L297.448 299.847C302.982 294.314 302.982 285.341 297.448 279.808ZM214.661 413.565C183.816 444.408 133.632 444.408 102.787 413.565L98.435 409.213C67.591 378.369 67.591 328.183 98.435 297.339L144.775 250.999L261.002 367.225L214.661 413.565ZM507.849 24.19C513.383 18.657 513.383 9.68499 507.849 4.15099C502.317 -1.38301 493.344 -1.38301 487.81 4.15099L422.261 69.699C421.838 70.121 421.46 70.569 421.102 71.029C401.99 55.416 378.286 46.925 353.275 46.925C324.575 46.925 297.593 58.102 277.299 78.396L220.939 134.756C215.405 140.29 215.405 149.261 220.939 154.795L357.206 291.06C358.521 292.376 360.083 293.42 361.802 294.133C363.522 294.845 365.364 295.212 367.225 295.212C369.086 295.212 370.928 294.845 372.648 294.133C374.367 293.42 375.929 292.376 377.244 291.06L433.604 234.7C453.898 214.406 465.074 187.424 465.074 158.725C465.074 133.714 456.584 110.01 440.97 90.898C441.437 90.5391 441.881 90.1521 442.3 89.739L507.849 24.19ZM413.565 214.662L367.225 261.003L250.998 144.775L297.338 98.434C312.28 83.493 332.145 75.264 353.275 75.264C374.406 75.264 394.271 83.493 409.212 98.434L413.564 102.786C428.505 117.727 436.734 137.593 436.734 158.723C436.735 179.855 428.506 199.72 413.565 214.662Z" fill="black"/>
<path d="M374.062 196.728L315.272 137.937C309.739 132.403 300.766 132.403 295.233 137.937C289.699 143.471 289.699 152.442 295.233 157.976L354.024 216.767C355.338 218.085 356.9 219.13 358.619 219.842C360.339 220.554 362.182 220.919 364.043 220.917C367.669 220.917 371.296 219.534 374.062 216.767C379.596 211.233 379.596 202.262 374.062 196.728ZM218.149 352.641L159.358 293.85C153.825 288.317 144.852 288.317 139.319 293.85C133.786 299.384 133.786 308.356 139.32 313.889L198.111 372.68C199.425 373.998 200.987 375.043 202.706 375.755C204.426 376.467 206.269 376.832 208.13 376.83C211.756 376.83 215.383 375.446 218.149 372.68C223.683 367.146 223.683 358.173 218.149 352.641Z" fill="black"/>
</g>
<defs>
<clipPath id="clip0_2311_8">
<rect width="512" height="512" fill="white"/>
</clipPath>
</defs>
</svg>
