<svg width="50" height="50" viewBox="0 0 512 512" fill="none" xmlns="http://www.w3.org/2000/svg">
<g clip-path="url(#clip0_2311_3)">
<path d="M95.984 377.254L146.344 464.484C157.211 483.328 181.656 490.304 200.988 479.129C220.118 468.074 226.691 443.633 215.625 424.489L185.625 372.519L211.605 357.519C216.387 354.754 218.027 348.641 215.265 343.859L202.262 321.336C203.812 321.036 214.008 319.036 393.801 283.766C416.027 282.559 429.344 258.25 418.117 238.816L384.883 181.254L406.121 149.086C407.145 147.536 407.716 145.732 407.772 143.875C407.828 142.018 407.366 140.183 406.438 138.574L386.438 103.934C385.507 102.327 384.148 101.011 382.513 100.131C380.877 99.2519 379.03 98.8443 377.176 98.954L338.703 101.262L301.809 37.355C296.465 28.098 286.891 22.492 276.203 22.359C276.074 22.355 275.949 22.355 275.82 22.355C265.492 22.355 256.117 27.496 250.563 36.187L119.93 202.602L35.004 251.632C1.602 270.91 -9.97 313.763 9.383 347.255C27.063 377.88 64.336 389.927 95.984 377.255V377.254ZM198.309 434.492C203.832 444.047 200.563 456.273 190.98 461.809C181.367 467.367 169.125 463.953 163.664 454.489L113.664 367.875L148.304 347.875C206.172 448.117 197.379 432.887 198.309 434.492ZM175.625 355.195L165.625 337.875L182.945 327.875L192.945 345.195L175.625 355.195ZM372.207 119.285L386.027 143.223L373.703 161.887L349.883 120.625L372.207 119.285ZM267.289 47.152C269.973 42.762 274.23 42.309 275.957 42.355C277.664 42.375 281.918 42.906 284.484 47.352L400.797 248.816C404.586 255.375 399.98 263.621 392.383 263.809C391.02 263.839 390.391 264.086 386.898 264.739L263.863 51.632C266.445 48.312 266.777 47.992 267.289 47.152ZM250.555 68.586L366.152 268.809L191.692 303.027L138.645 211.148L250.555 68.586ZM26.703 337.254C22.3162 329.67 20.002 321.065 19.993 312.304C19.993 294.469 29.578 277.859 45.003 268.954L122.945 223.954L172.945 310.554L95.004 355.559C71.125 369.339 40.488 361.129 26.704 337.254H26.703Z" fill="black"/>
</g>
<defs>
<clipPath id="clip0_2311_3">
<rect width="512" height="512" fill="white"/>
</clipPath>
</defs>
</svg>
